<mxfile host="app.diagrams.net" modified="2023-11-23T10:11:35.361Z" agent="Mozilla/5.0 (Macintosh; Intel Mac OS X 10_15_7) AppleWebKit/605.1.15 (KHTML, like Gecko) Version/17.1 Safari/605.1.15" etag="1leEfjVG1AITzLwUGErE" version="22.1.3" type="device" pages="4">
  <diagram id="v9AMALxxlqKH1lIf8LhL" name="Д компонентов">
    <mxGraphModel dx="1593" dy="549" grid="1" gridSize="10" guides="1" tooltips="1" connect="1" arrows="1" fold="1" page="1" pageScale="1" pageWidth="827" pageHeight="1169" math="0" shadow="0">
      <root>
        <mxCell id="0" />
        <mxCell id="1" parent="0" />
        <mxCell id="SFJNCCk8OToBk8lXdypf-1" value="&lt;p style=&quot;margin:0px;margin-top:6px;text-align:center;&quot;&gt;&lt;b&gt;Загрузчик&lt;/b&gt;&lt;/p&gt;&lt;hr&gt;&lt;p style=&quot;margin:0px;margin-left:8px;&quot;&gt;+ Attribute1: Type&lt;br&gt;+ Attribute2: Type&lt;/p&gt;" style="align=left;overflow=fill;html=1;dropTarget=0;whiteSpace=wrap;" parent="1" vertex="1">
          <mxGeometry x="-110" y="90" width="180" height="90" as="geometry" />
        </mxCell>
        <mxCell id="SFJNCCk8OToBk8lXdypf-2" value="" style="shape=component;jettyWidth=8;jettyHeight=4;" parent="SFJNCCk8OToBk8lXdypf-1" vertex="1">
          <mxGeometry x="1" width="20" height="20" relative="1" as="geometry">
            <mxPoint x="-24" y="4" as="offset" />
          </mxGeometry>
        </mxCell>
        <mxCell id="SFJNCCk8OToBk8lXdypf-14" style="edgeStyle=orthogonalEdgeStyle;rounded=0;orthogonalLoop=1;jettySize=auto;html=1;exitX=1;exitY=0.5;exitDx=0;exitDy=0;endArrow=none;endFill=0;" parent="1" source="SFJNCCk8OToBk8lXdypf-3" edge="1">
          <mxGeometry relative="1" as="geometry">
            <mxPoint x="480" y="115" as="targetPoint" />
          </mxGeometry>
        </mxCell>
        <mxCell id="SFJNCCk8OToBk8lXdypf-3" value="&lt;p style=&quot;margin:0px;margin-top:6px;text-align:center;&quot;&gt;&lt;b&gt;Построитель&lt;/b&gt;&lt;/p&gt;&lt;hr&gt;&lt;p style=&quot;margin:0px;margin-left:8px;&quot;&gt;&amp;lt;предоставляемый интерфейс&amp;gt;: LocalTime&lt;br&gt;&amp;lt;требуемый&amp;gt;:fxml&lt;/p&gt;" style="align=left;overflow=fill;html=1;dropTarget=0;whiteSpace=wrap;" parent="1" vertex="1">
          <mxGeometry x="234" y="70" width="180" height="90" as="geometry" />
        </mxCell>
        <mxCell id="SFJNCCk8OToBk8lXdypf-4" value="" style="shape=component;jettyWidth=8;jettyHeight=4;" parent="SFJNCCk8OToBk8lXdypf-3" vertex="1">
          <mxGeometry x="1" width="20" height="20" relative="1" as="geometry">
            <mxPoint x="-24" y="4" as="offset" />
          </mxGeometry>
        </mxCell>
        <mxCell id="SFJNCCk8OToBk8lXdypf-7" value="&lt;p style=&quot;margin:0px;margin-top:6px;text-align:center;&quot;&gt;&lt;b&gt;Часы с логикой&lt;/b&gt;&lt;/p&gt;&lt;hr&gt;&lt;p style=&quot;margin:0px;margin-left:8px;&quot;&gt;+ Attribute1: Type&lt;br&gt;+ Attribute2: Type&lt;/p&gt;" style="align=left;overflow=fill;html=1;dropTarget=0;whiteSpace=wrap;" parent="1" vertex="1">
          <mxGeometry x="340" y="200" width="180" height="90" as="geometry" />
        </mxCell>
        <mxCell id="SFJNCCk8OToBk8lXdypf-8" value="" style="shape=component;jettyWidth=8;jettyHeight=4;" parent="SFJNCCk8OToBk8lXdypf-7" vertex="1">
          <mxGeometry x="1" width="20" height="20" relative="1" as="geometry">
            <mxPoint x="-24" y="4" as="offset" />
          </mxGeometry>
        </mxCell>
        <mxCell id="SFJNCCk8OToBk8lXdypf-11" style="edgeStyle=orthogonalEdgeStyle;rounded=0;orthogonalLoop=1;jettySize=auto;html=1;exitX=0;exitY=0.5;exitDx=0;exitDy=0;exitPerimeter=0;endArrow=none;endFill=0;" parent="1" source="SFJNCCk8OToBk8lXdypf-9" target="SFJNCCk8OToBk8lXdypf-7" edge="1">
          <mxGeometry relative="1" as="geometry">
            <mxPoint x="180" y="190" as="targetPoint" />
            <Array as="points">
              <mxPoint x="240" y="210" />
              <mxPoint x="240" y="245" />
            </Array>
          </mxGeometry>
        </mxCell>
        <mxCell id="SFJNCCk8OToBk8lXdypf-12" style="edgeStyle=orthogonalEdgeStyle;rounded=0;orthogonalLoop=1;jettySize=auto;html=1;exitX=1;exitY=0.5;exitDx=0;exitDy=0;exitPerimeter=0;entryX=0.5;entryY=1;entryDx=0;entryDy=0;endArrow=none;endFill=0;" parent="1" source="SFJNCCk8OToBk8lXdypf-9" target="SFJNCCk8OToBk8lXdypf-3" edge="1">
          <mxGeometry relative="1" as="geometry">
            <Array as="points">
              <mxPoint x="280" y="210" />
              <mxPoint x="324" y="210" />
            </Array>
          </mxGeometry>
        </mxCell>
        <mxCell id="SFJNCCk8OToBk8lXdypf-9" value="" style="shape=providedRequiredInterface;html=1;verticalLabelPosition=bottom;sketch=0;" parent="1" vertex="1">
          <mxGeometry x="260" y="200" width="20" height="20" as="geometry" />
        </mxCell>
        <mxCell id="SFJNCCk8OToBk8lXdypf-10" value="" style="shape=requiredInterface;html=1;verticalLabelPosition=bottom;sketch=0;" parent="1" vertex="1">
          <mxGeometry x="480" y="105" width="10" height="20" as="geometry" />
        </mxCell>
        <mxCell id="SFJNCCk8OToBk8lXdypf-15" value="элемент управления &lt;br&gt;Process" style="text;html=1;align=center;verticalAlign=middle;resizable=0;points=[];autosize=1;strokeColor=none;fillColor=none;" parent="1" vertex="1">
          <mxGeometry x="460" y="70" width="140" height="40" as="geometry" />
        </mxCell>
        <mxCell id="SFJNCCk8OToBk8lXdypf-16" value="" style="rounded=0;orthogonalLoop=1;jettySize=auto;html=1;endArrow=none;endFill=0;sketch=0;sourcePerimeterSpacing=0;targetPerimeterSpacing=0;exitX=1;exitY=0.5;exitDx=0;exitDy=0;" parent="1" source="SFJNCCk8OToBk8lXdypf-1" target="SFJNCCk8OToBk8lXdypf-18" edge="1">
          <mxGeometry relative="1" as="geometry">
            <mxPoint x="70" y="185" as="sourcePoint" />
          </mxGeometry>
        </mxCell>
        <mxCell id="SFJNCCk8OToBk8lXdypf-17" value="" style="rounded=0;orthogonalLoop=1;jettySize=auto;html=1;endArrow=halfCircle;endFill=0;endSize=6;strokeWidth=1;sketch=0;exitX=0;exitY=0.5;exitDx=0;exitDy=0;" parent="1" source="SFJNCCk8OToBk8lXdypf-3" target="SFJNCCk8OToBk8lXdypf-18" edge="1">
          <mxGeometry relative="1" as="geometry">
            <mxPoint x="110" y="185" as="sourcePoint" />
            <mxPoint x="120" y="140" as="targetPoint" />
          </mxGeometry>
        </mxCell>
        <mxCell id="SFJNCCk8OToBk8lXdypf-18" value="" style="ellipse;whiteSpace=wrap;html=1;align=center;aspect=fixed;resizable=0;points=[];outlineConnect=0;sketch=0;" parent="1" vertex="1">
          <mxGeometry x="110" y="130" width="10" height="10" as="geometry" />
        </mxCell>
      </root>
    </mxGraphModel>
  </diagram>
  <diagram id="tbYoIxvm8K5A4yucYQRj" name="Д классов">
    <mxGraphModel dx="2194" dy="2149" grid="1" gridSize="10" guides="1" tooltips="1" connect="1" arrows="1" fold="1" page="1" pageScale="1" pageWidth="827" pageHeight="1169" math="0" shadow="0">
      <root>
        <mxCell id="0" />
        <mxCell id="1" parent="0" />
        <mxCell id="1KnPR-oTl1ZoPhUx6Ieb-1" value="Indicator" style="swimlane;fontStyle=1;align=center;verticalAlign=top;childLayout=stackLayout;horizontal=1;startSize=26;horizontalStack=0;resizeParent=1;resizeParentMax=0;resizeLast=0;collapsible=1;marginBottom=0;whiteSpace=wrap;html=1;" parent="1" vertex="1">
          <mxGeometry x="100" y="134" width="209.23" height="162" as="geometry" />
        </mxCell>
        <mxCell id="1KnPR-oTl1ZoPhUx6Ieb-2" value="- timenow: timeNow" style="text;strokeColor=none;fillColor=none;align=left;verticalAlign=top;spacingLeft=4;spacingRight=4;overflow=hidden;rotatable=0;points=[[0,0.5],[1,0.5]];portConstraint=eastwest;whiteSpace=wrap;html=1;" parent="1KnPR-oTl1ZoPhUx6Ieb-1" vertex="1">
          <mxGeometry y="26" width="209.23" height="24" as="geometry" />
        </mxCell>
        <mxCell id="1KnPR-oTl1ZoPhUx6Ieb-6" value="- starttime: long" style="text;strokeColor=none;fillColor=none;align=left;verticalAlign=top;spacingLeft=4;spacingRight=4;overflow=hidden;rotatable=0;points=[[0,0.5],[1,0.5]];portConstraint=eastwest;whiteSpace=wrap;html=1;" parent="1KnPR-oTl1ZoPhUx6Ieb-1" vertex="1">
          <mxGeometry y="50" width="209.23" height="26" as="geometry" />
        </mxCell>
        <mxCell id="1KnPR-oTl1ZoPhUx6Ieb-5" value="+ endtime: long" style="text;strokeColor=none;fillColor=none;align=left;verticalAlign=top;spacingLeft=4;spacingRight=4;overflow=hidden;rotatable=0;points=[[0,0.5],[1,0.5]];portConstraint=eastwest;whiteSpace=wrap;html=1;" parent="1KnPR-oTl1ZoPhUx6Ieb-1" vertex="1">
          <mxGeometry y="76" width="209.23" height="26" as="geometry" />
        </mxCell>
        <mxCell id="1KnPR-oTl1ZoPhUx6Ieb-7" value="# title: String" style="text;strokeColor=none;fillColor=none;align=left;verticalAlign=top;spacingLeft=4;spacingRight=4;overflow=hidden;rotatable=0;points=[[0,0.5],[1,0.5]];portConstraint=eastwest;whiteSpace=wrap;html=1;" parent="1KnPR-oTl1ZoPhUx6Ieb-1" vertex="1">
          <mxGeometry y="102" width="209.23" height="26" as="geometry" />
        </mxCell>
        <mxCell id="1KnPR-oTl1ZoPhUx6Ieb-3" value="" style="line;strokeWidth=1;fillColor=none;align=left;verticalAlign=middle;spacingTop=-1;spacingLeft=3;spacingRight=3;rotatable=0;labelPosition=right;points=[];portConstraint=eastwest;strokeColor=inherit;" parent="1KnPR-oTl1ZoPhUx6Ieb-1" vertex="1">
          <mxGeometry y="128" width="209.23" height="8" as="geometry" />
        </mxCell>
        <mxCell id="1KnPR-oTl1ZoPhUx6Ieb-4" value="+ drawPicture(long): Image" style="text;strokeColor=none;fillColor=none;align=left;verticalAlign=top;spacingLeft=4;spacingRight=4;overflow=hidden;rotatable=0;points=[[0,0.5],[1,0.5]];portConstraint=eastwest;whiteSpace=wrap;html=1;" parent="1KnPR-oTl1ZoPhUx6Ieb-1" vertex="1">
          <mxGeometry y="136" width="209.23" height="26" as="geometry" />
        </mxCell>
        <mxCell id="1KnPR-oTl1ZoPhUx6Ieb-9" value="IIndicator" style="html=1;whiteSpace=wrap;" parent="1" vertex="1">
          <mxGeometry x="390" y="6" width="110" height="50" as="geometry" />
        </mxCell>
        <mxCell id="1KnPR-oTl1ZoPhUx6Ieb-12" value="TimeNow" style="swimlane;fontStyle=0;childLayout=stackLayout;horizontal=1;startSize=26;fillColor=none;horizontalStack=0;resizeParent=1;resizeParentMax=0;resizeLast=0;collapsible=1;marginBottom=0;whiteSpace=wrap;html=1;" parent="1" vertex="1">
          <mxGeometry x="470" y="230" width="140" height="104" as="geometry" />
        </mxCell>
        <mxCell id="1KnPR-oTl1ZoPhUx6Ieb-13" value="+ field: type" style="text;strokeColor=none;fillColor=none;align=left;verticalAlign=top;spacingLeft=4;spacingRight=4;overflow=hidden;rotatable=0;points=[[0,0.5],[1,0.5]];portConstraint=eastwest;whiteSpace=wrap;html=1;" parent="1KnPR-oTl1ZoPhUx6Ieb-12" vertex="1">
          <mxGeometry y="26" width="140" height="26" as="geometry" />
        </mxCell>
        <mxCell id="1KnPR-oTl1ZoPhUx6Ieb-14" value="+ field: type" style="text;strokeColor=none;fillColor=none;align=left;verticalAlign=top;spacingLeft=4;spacingRight=4;overflow=hidden;rotatable=0;points=[[0,0.5],[1,0.5]];portConstraint=eastwest;whiteSpace=wrap;html=1;" parent="1KnPR-oTl1ZoPhUx6Ieb-12" vertex="1">
          <mxGeometry y="52" width="140" height="26" as="geometry" />
        </mxCell>
        <mxCell id="1KnPR-oTl1ZoPhUx6Ieb-15" value="+ field: type" style="text;strokeColor=none;fillColor=none;align=left;verticalAlign=top;spacingLeft=4;spacingRight=4;overflow=hidden;rotatable=0;points=[[0,0.5],[1,0.5]];portConstraint=eastwest;whiteSpace=wrap;html=1;" parent="1KnPR-oTl1ZoPhUx6Ieb-12" vertex="1">
          <mxGeometry y="78" width="140" height="26" as="geometry" />
        </mxCell>
        <mxCell id="1KnPR-oTl1ZoPhUx6Ieb-16" style="edgeStyle=orthogonalEdgeStyle;rounded=0;orthogonalLoop=1;jettySize=auto;html=1;entryX=0.5;entryY=1;entryDx=0;entryDy=0;endArrow=block;endFill=0;" parent="1" source="1KnPR-oTl1ZoPhUx6Ieb-6" target="1KnPR-oTl1ZoPhUx6Ieb-9" edge="1">
          <mxGeometry relative="1" as="geometry" />
        </mxCell>
        <mxCell id="1KnPR-oTl1ZoPhUx6Ieb-17" value="" style="endArrow=block;dashed=1;endFill=0;endSize=12;html=1;rounded=0;exitX=0.5;exitY=0;exitDx=0;exitDy=0;edgeStyle=orthogonalEdgeStyle;entryX=0.5;entryY=1;entryDx=0;entryDy=0;" parent="1" source="1KnPR-oTl1ZoPhUx6Ieb-1" target="1KnPR-oTl1ZoPhUx6Ieb-19" edge="1">
          <mxGeometry width="160" relative="1" as="geometry">
            <mxPoint x="320" y="180" as="sourcePoint" />
            <mxPoint x="245" y="60" as="targetPoint" />
            <Array as="points">
              <mxPoint x="205" y="92" />
              <mxPoint x="245" y="92" />
            </Array>
          </mxGeometry>
        </mxCell>
        <mxCell id="1KnPR-oTl1ZoPhUx6Ieb-19" value="&amp;laquo;interface&amp;raquo;&lt;br&gt;&lt;b&gt;Name&lt;/b&gt;" style="html=1;whiteSpace=wrap;" parent="1" vertex="1">
          <mxGeometry x="190" y="-30" width="110" height="50" as="geometry" />
        </mxCell>
        <mxCell id="1KnPR-oTl1ZoPhUx6Ieb-21" value="1" style="endArrow=open;html=1;endSize=12;startArrow=diamondThin;startSize=14;startFill=0;edgeStyle=orthogonalEdgeStyle;align=left;verticalAlign=bottom;rounded=0;exitX=1;exitY=0.5;exitDx=0;exitDy=0;entryX=0;entryY=0.5;entryDx=0;entryDy=0;" parent="1" source="1KnPR-oTl1ZoPhUx6Ieb-7" target="1KnPR-oTl1ZoPhUx6Ieb-14" edge="1">
          <mxGeometry x="-1" y="3" relative="1" as="geometry">
            <mxPoint x="180" y="320" as="sourcePoint" />
            <mxPoint x="438" y="322" as="targetPoint" />
          </mxGeometry>
        </mxCell>
        <mxCell id="1KnPR-oTl1ZoPhUx6Ieb-22" value="1" style="endArrow=open;html=1;endSize=12;startArrow=diamondThin;startSize=14;startFill=1;edgeStyle=orthogonalEdgeStyle;align=left;verticalAlign=bottom;rounded=0;entryX=1;entryY=0.5;entryDx=0;entryDy=0;" parent="1" target="1KnPR-oTl1ZoPhUx6Ieb-23" edge="1">
          <mxGeometry x="-1" y="10" relative="1" as="geometry">
            <mxPoint x="100" y="215" as="sourcePoint" />
            <mxPoint x="60" y="330" as="targetPoint" />
            <Array as="points">
              <mxPoint x="100" y="215" />
            </Array>
            <mxPoint as="offset" />
          </mxGeometry>
        </mxCell>
        <mxCell id="1KnPR-oTl1ZoPhUx6Ieb-23" value="TitleComment" style="html=1;whiteSpace=wrap;" parent="1" vertex="1">
          <mxGeometry x="-150" y="190" width="110" height="50" as="geometry" />
        </mxCell>
        <mxCell id="1KnPR-oTl1ZoPhUx6Ieb-25" style="edgeStyle=orthogonalEdgeStyle;rounded=0;orthogonalLoop=1;jettySize=auto;html=1;entryX=1;entryY=0.5;entryDx=0;entryDy=0;" parent="1" source="1KnPR-oTl1ZoPhUx6Ieb-24" target="1KnPR-oTl1ZoPhUx6Ieb-4" edge="1">
          <mxGeometry relative="1" as="geometry" />
        </mxCell>
        <mxCell id="1KnPR-oTl1ZoPhUx6Ieb-24" value="MyImage" style="html=1;whiteSpace=wrap;" parent="1" vertex="1">
          <mxGeometry x="210" y="370" width="110" height="50" as="geometry" />
        </mxCell>
      </root>
    </mxGraphModel>
  </diagram>
  <diagram id="sIauiNXIZhM9j56u3tVs" name="Д. состояний">
    <mxGraphModel dx="1126" dy="807" grid="1" gridSize="10" guides="1" tooltips="1" connect="1" arrows="1" fold="1" page="1" pageScale="1" pageWidth="827" pageHeight="1169" math="0" shadow="0">
      <root>
        <mxCell id="0" />
        <mxCell id="1" parent="0" />
        <mxCell id="3bPiilgUSjmd6brlkjs5-1" value="" style="ellipse;html=1;shape=startState;labelBackgroundColor=none;" parent="1" vertex="1">
          <mxGeometry x="190" y="30" width="30" height="30" as="geometry" />
        </mxCell>
        <mxCell id="3bPiilgUSjmd6brlkjs5-2" value="извлечение требований осуществлено" style="edgeStyle=orthogonalEdgeStyle;html=1;verticalAlign=bottom;endArrow=open;endSize=8;rounded=0;labelBackgroundColor=none;fontColor=default;" parent="1" source="3bPiilgUSjmd6brlkjs5-1" edge="1">
          <mxGeometry relative="1" as="geometry">
            <mxPoint x="205" y="120" as="targetPoint" />
            <Array as="points">
              <mxPoint x="205" y="80" />
              <mxPoint x="205" y="80" />
            </Array>
          </mxGeometry>
        </mxCell>
        <mxCell id="3bPiilgUSjmd6brlkjs5-3" value="Пр. Продукт" style="text;html=1;align=center;verticalAlign=middle;resizable=0;points=[];autosize=1;strokeColor=none;fillColor=none;labelBackgroundColor=none;" parent="1" vertex="1">
          <mxGeometry x="235" y="25" width="90" height="30" as="geometry" />
        </mxCell>
        <mxCell id="3bPiilgUSjmd6brlkjs5-8" value="специфицирован" style="swimlane;fontStyle=1;align=center;verticalAlign=middle;childLayout=stackLayout;horizontal=1;startSize=30;horizontalStack=0;resizeParent=0;resizeLast=1;container=0;collapsible=0;rounded=1;arcSize=30;swimlaneFillColor=#ffffc0;dropTarget=0;labelBackgroundColor=none;" parent="1" vertex="1">
          <mxGeometry x="117.5" y="120" width="175" height="100" as="geometry" />
        </mxCell>
        <mxCell id="3bPiilgUSjmd6brlkjs5-9" value="функцинальные требования определены&lt;br&gt;атрибуты качества заданы&lt;br&gt;" style="text;html=1;strokeColor=none;fillColor=none;align=center;verticalAlign=middle;spacingLeft=4;spacingRight=4;whiteSpace=wrap;overflow=hidden;rotatable=0;labelBackgroundColor=none;" parent="3bPiilgUSjmd6brlkjs5-8" vertex="1">
          <mxGeometry y="30" width="175" height="70" as="geometry" />
        </mxCell>
        <mxCell id="3bPiilgUSjmd6brlkjs5-12" style="edgeStyle=orthogonalEdgeStyle;rounded=0;orthogonalLoop=1;jettySize=auto;html=1;labelBackgroundColor=none;fontColor=default;" parent="1" source="3bPiilgUSjmd6brlkjs5-9" edge="1">
          <mxGeometry relative="1" as="geometry">
            <mxPoint x="217.5" y="280" as="targetPoint" />
          </mxGeometry>
        </mxCell>
        <mxCell id="3bPiilgUSjmd6brlkjs5-13" value="проект принят" style="text;html=1;align=center;verticalAlign=middle;resizable=0;points=[];autosize=1;strokeColor=none;fillColor=none;labelBackgroundColor=none;" parent="1" vertex="1">
          <mxGeometry x="220" y="235" width="100" height="30" as="geometry" />
        </mxCell>
        <mxCell id="3bPiilgUSjmd6brlkjs5-14" value="реализован" style="swimlane;fontStyle=1;align=center;verticalAlign=middle;childLayout=stackLayout;horizontal=1;startSize=30;horizontalStack=0;resizeParent=0;resizeLast=1;container=0;collapsible=0;rounded=1;arcSize=30;swimlaneFillColor=#ffffc0;dropTarget=0;labelBackgroundColor=none;" parent="1" vertex="1">
          <mxGeometry x="150" y="400" width="160" height="60" as="geometry" />
        </mxCell>
        <mxCell id="3bPiilgUSjmd6brlkjs5-15" value="код написан&lt;br&gt;тесты пройдены" style="text;html=1;strokeColor=none;fillColor=none;align=center;verticalAlign=middle;spacingLeft=4;spacingRight=4;whiteSpace=wrap;overflow=hidden;rotatable=0;labelBackgroundColor=none;" parent="3bPiilgUSjmd6brlkjs5-14" vertex="1">
          <mxGeometry y="30" width="160" height="30" as="geometry" />
        </mxCell>
        <mxCell id="3bPiilgUSjmd6brlkjs5-16" value="приемочное тестирование закончено" style="edgeStyle=orthogonalEdgeStyle;html=1;verticalAlign=bottom;endArrow=open;endSize=8;rounded=0;entryX=0.5;entryY=0;entryDx=0;entryDy=0;labelBackgroundColor=none;fontColor=default;" parent="1" source="3bPiilgUSjmd6brlkjs5-14" target="3bPiilgUSjmd6brlkjs5-20" edge="1">
          <mxGeometry relative="1" as="geometry">
            <mxPoint x="230" y="560" as="targetPoint" />
            <Array as="points" />
          </mxGeometry>
        </mxCell>
        <mxCell id="3bPiilgUSjmd6brlkjs5-17" value="спроектирован" style="swimlane;fontStyle=1;align=center;verticalAlign=middle;childLayout=stackLayout;horizontal=1;startSize=30;horizontalStack=0;resizeParent=0;resizeLast=1;container=0;collapsible=0;rounded=1;arcSize=30;swimlaneFillColor=#ffffc0;dropTarget=0;labelBackgroundColor=none;" parent="1" vertex="1">
          <mxGeometry x="150" y="280" width="160" height="60" as="geometry" />
        </mxCell>
        <mxCell id="3bPiilgUSjmd6brlkjs5-18" value="архитектурно&amp;nbsp;&lt;br&gt;детально" style="text;html=1;strokeColor=none;fillColor=none;align=center;verticalAlign=middle;spacingLeft=4;spacingRight=4;whiteSpace=wrap;overflow=hidden;rotatable=0;labelBackgroundColor=none;" parent="3bPiilgUSjmd6brlkjs5-17" vertex="1">
          <mxGeometry y="30" width="160" height="30" as="geometry" />
        </mxCell>
        <mxCell id="3bPiilgUSjmd6brlkjs5-19" value="тестовые сценарии выполнены" style="edgeStyle=orthogonalEdgeStyle;html=1;verticalAlign=bottom;endArrow=open;endSize=8;rounded=0;entryX=0.5;entryY=0;entryDx=0;entryDy=0;labelBackgroundColor=none;fontColor=default;" parent="1" source="3bPiilgUSjmd6brlkjs5-17" target="3bPiilgUSjmd6brlkjs5-14" edge="1">
          <mxGeometry relative="1" as="geometry">
            <mxPoint x="420" y="410" as="targetPoint" />
            <Array as="points">
              <mxPoint x="230" y="370" />
              <mxPoint x="230" y="370" />
            </Array>
          </mxGeometry>
        </mxCell>
        <mxCell id="3bPiilgUSjmd6brlkjs5-20" value="аттестован" style="swimlane;fontStyle=1;align=center;verticalAlign=middle;childLayout=stackLayout;horizontal=1;startSize=30;horizontalStack=0;resizeParent=0;resizeLast=1;container=0;collapsible=0;rounded=1;arcSize=30;swimlaneFillColor=#ffffc0;dropTarget=0;labelBackgroundColor=none;" parent="1" vertex="1">
          <mxGeometry x="150" y="510" width="160" height="60" as="geometry" />
        </mxCell>
        <mxCell id="3bPiilgUSjmd6brlkjs5-22" value="" style="edgeStyle=orthogonalEdgeStyle;html=1;verticalAlign=bottom;endArrow=open;endSize=8;rounded=0;entryX=0.5;entryY=0;entryDx=0;entryDy=0;startArrow=none;labelBackgroundColor=none;fontColor=default;" parent="1" source="3bPiilgUSjmd6brlkjs5-30" target="3bPiilgUSjmd6brlkjs5-23" edge="1">
          <mxGeometry relative="1" as="geometry">
            <mxPoint x="240" y="650" as="targetPoint" />
            <Array as="points">
              <mxPoint x="230" y="625" />
              <mxPoint x="240" y="625" />
              <mxPoint x="240" y="650" />
            </Array>
          </mxGeometry>
        </mxCell>
        <mxCell id="3bPiilgUSjmd6brlkjs5-27" style="edgeStyle=orthogonalEdgeStyle;rounded=0;orthogonalLoop=1;jettySize=auto;html=1;entryX=0;entryY=0.25;entryDx=0;entryDy=0;curved=1;labelBackgroundColor=none;fontColor=default;" parent="1" source="3bPiilgUSjmd6brlkjs5-23" target="3bPiilgUSjmd6brlkjs5-9" edge="1">
          <mxGeometry relative="1" as="geometry">
            <Array as="points">
              <mxPoint x="100" y="690" />
              <mxPoint x="100" y="168" />
            </Array>
          </mxGeometry>
        </mxCell>
        <mxCell id="3bPiilgUSjmd6brlkjs5-23" value="рабочее&lt;br&gt;состояния" style="rounded=1;whiteSpace=wrap;html=1;arcSize=40;labelBackgroundColor=none;" parent="1" vertex="1">
          <mxGeometry x="180" y="670" width="120" height="40" as="geometry" />
        </mxCell>
        <mxCell id="3bPiilgUSjmd6brlkjs5-24" value="" style="edgeStyle=orthogonalEdgeStyle;html=1;verticalAlign=bottom;endArrow=open;endSize=8;rounded=0;labelBackgroundColor=none;fontColor=default;" parent="1" source="3bPiilgUSjmd6brlkjs5-23" edge="1">
          <mxGeometry relative="1" as="geometry">
            <mxPoint x="240" y="780" as="targetPoint" />
          </mxGeometry>
        </mxCell>
        <mxCell id="3bPiilgUSjmd6brlkjs5-25" style="edgeStyle=orthogonalEdgeStyle;rounded=0;orthogonalLoop=1;jettySize=auto;html=1;entryX=0.75;entryY=1;entryDx=0;entryDy=0;curved=1;labelBackgroundColor=none;fontColor=default;" parent="1" source="3bPiilgUSjmd6brlkjs5-23" target="3bPiilgUSjmd6brlkjs5-23" edge="1">
          <mxGeometry relative="1" as="geometry" />
        </mxCell>
        <mxCell id="3bPiilgUSjmd6brlkjs5-26" value="Text" style="edgeLabel;html=1;align=center;verticalAlign=middle;resizable=0;points=[];labelBackgroundColor=none;" parent="3bPiilgUSjmd6brlkjs5-25" connectable="0" vertex="1">
          <mxGeometry x="0.0373" y="-1" relative="1" as="geometry">
            <mxPoint as="offset" />
          </mxGeometry>
        </mxCell>
        <mxCell id="3bPiilgUSjmd6brlkjs5-28" value="обнаружена ошибка" style="text;html=1;align=center;verticalAlign=middle;resizable=0;points=[];autosize=1;strokeColor=none;fillColor=none;labelBackgroundColor=none;" parent="1" vertex="1">
          <mxGeometry y="475" width="140" height="30" as="geometry" />
        </mxCell>
        <mxCell id="3bPiilgUSjmd6brlkjs5-29" value="" style="ellipse;html=1;shape=endState;labelBackgroundColor=none;" parent="1" vertex="1">
          <mxGeometry x="225" y="780" width="30" height="30" as="geometry" />
        </mxCell>
        <mxCell id="3bPiilgUSjmd6brlkjs5-31" value="" style="edgeStyle=orthogonalEdgeStyle;html=1;verticalAlign=bottom;endArrow=none;endSize=8;rounded=0;entryX=0.5;entryY=0;entryDx=0;entryDy=0;labelBackgroundColor=none;fontColor=default;" parent="1" source="3bPiilgUSjmd6brlkjs5-20" target="3bPiilgUSjmd6brlkjs5-30" edge="1">
          <mxGeometry relative="1" as="geometry">
            <mxPoint x="240" y="670" as="targetPoint" />
            <mxPoint x="230" y="570" as="sourcePoint" />
            <Array as="points" />
          </mxGeometry>
        </mxCell>
        <mxCell id="3bPiilgUSjmd6brlkjs5-30" value="внедрен" style="text;align=center;fontStyle=1;verticalAlign=middle;spacingLeft=3;spacingRight=3;strokeColor=none;rotatable=0;points=[[0,0.5],[1,0.5]];portConstraint=eastwest;html=1;labelBackgroundColor=none;" parent="1" vertex="1">
          <mxGeometry x="180" y="610" width="80" height="26" as="geometry" />
        </mxCell>
        <mxCell id="3bPiilgUSjmd6brlkjs5-32" value="снят с эксплуатации" style="text;align=center;fontStyle=1;verticalAlign=middle;spacingLeft=3;spacingRight=3;strokeColor=none;rotatable=0;points=[[0,0.5],[1,0.5]];portConstraint=eastwest;html=1;labelBackgroundColor=none;" parent="1" vertex="1">
          <mxGeometry x="190" y="730" width="80" height="26" as="geometry" />
        </mxCell>
        <mxCell id="uEcfHRJKwu7Lw1StR_Q4-1" value="" style="ellipse;html=1;shape=startState;labelBackgroundColor=none;fillColor=#0b0a0a;" parent="1" vertex="1">
          <mxGeometry x="560" y="30" width="30" height="30" as="geometry" />
        </mxCell>
        <mxCell id="uEcfHRJKwu7Lw1StR_Q4-2" value="нажата кнопка &quot;Играт" style="edgeStyle=orthogonalEdgeStyle;html=1;verticalAlign=bottom;endArrow=open;endSize=8;rounded=0;labelBackgroundColor=none;fontColor=default;" parent="1" source="uEcfHRJKwu7Lw1StR_Q4-1" edge="1">
          <mxGeometry x="-0.3333" y="55" relative="1" as="geometry">
            <mxPoint x="575" y="120" as="targetPoint" />
            <Array as="points">
              <mxPoint x="575" y="80" />
              <mxPoint x="575" y="80" />
            </Array>
            <mxPoint as="offset" />
          </mxGeometry>
        </mxCell>
        <mxCell id="uEcfHRJKwu7Lw1StR_Q4-4" value="запущен" style="swimlane;fontStyle=1;align=center;verticalAlign=middle;childLayout=stackLayout;horizontal=1;startSize=30;horizontalStack=0;resizeParent=0;resizeLast=1;container=0;collapsible=0;rounded=1;arcSize=30;swimlaneFillColor=#ffffc0;dropTarget=0;labelBackgroundColor=none;" parent="1" vertex="1">
          <mxGeometry x="487.5" y="120" width="175" height="100" as="geometry" />
        </mxCell>
        <mxCell id="uEcfHRJKwu7Lw1StR_Q4-5" value="лампочка загорелась&lt;br&gt;проверка наличия монет" style="text;html=1;strokeColor=none;fillColor=none;align=center;verticalAlign=middle;spacingLeft=4;spacingRight=4;whiteSpace=wrap;overflow=hidden;rotatable=0;labelBackgroundColor=none;" parent="uEcfHRJKwu7Lw1StR_Q4-4" vertex="1">
          <mxGeometry y="30" width="175" height="70" as="geometry" />
        </mxCell>
        <mxCell id="uEcfHRJKwu7Lw1StR_Q4-6" style="edgeStyle=orthogonalEdgeStyle;rounded=0;orthogonalLoop=1;jettySize=auto;html=1;labelBackgroundColor=none;fontColor=default;" parent="1" source="uEcfHRJKwu7Lw1StR_Q4-5" edge="1">
          <mxGeometry relative="1" as="geometry">
            <mxPoint x="587.5" y="280" as="targetPoint" />
          </mxGeometry>
        </mxCell>
        <mxCell id="uEcfHRJKwu7Lw1StR_Q4-7" value="монета опущена" style="text;html=1;align=center;verticalAlign=middle;resizable=0;points=[];autosize=1;strokeColor=none;fillColor=none;labelBackgroundColor=none;" parent="1" vertex="1">
          <mxGeometry x="550" y="235" width="120" height="30" as="geometry" />
        </mxCell>
        <mxCell id="uEcfHRJKwu7Lw1StR_Q4-8" value="рабочее" style="swimlane;fontStyle=1;align=center;verticalAlign=middle;childLayout=stackLayout;horizontal=1;startSize=30;horizontalStack=0;resizeParent=0;resizeLast=1;container=0;collapsible=0;rounded=1;arcSize=30;swimlaneFillColor=#ffffc0;dropTarget=0;labelBackgroundColor=none;" parent="1" vertex="1">
          <mxGeometry x="500" y="390" width="210" height="90" as="geometry" />
        </mxCell>
        <mxCell id="uEcfHRJKwu7Lw1StR_Q4-9" value="генерация случайного значения&lt;br&gt;сравнение с выбором" style="text;html=1;strokeColor=none;fillColor=none;align=center;verticalAlign=middle;spacingLeft=4;spacingRight=4;whiteSpace=wrap;overflow=hidden;rotatable=0;labelBackgroundColor=none;" parent="uEcfHRJKwu7Lw1StR_Q4-8" vertex="1">
          <mxGeometry y="30" width="210" height="60" as="geometry" />
        </mxCell>
        <mxCell id="uEcfHRJKwu7Lw1StR_Q4-10" value="игра завершена" style="edgeStyle=orthogonalEdgeStyle;html=1;verticalAlign=bottom;endArrow=open;endSize=8;rounded=0;entryX=0.5;entryY=0;entryDx=0;entryDy=0;labelBackgroundColor=none;fontColor=default;" parent="1" source="uEcfHRJKwu7Lw1StR_Q4-8" edge="1">
          <mxGeometry x="-0.0625" y="-5" relative="1" as="geometry">
            <mxPoint x="610" y="555" as="targetPoint" />
            <Array as="points" />
            <mxPoint x="-5" y="-5" as="offset" />
          </mxGeometry>
        </mxCell>
        <mxCell id="uEcfHRJKwu7Lw1StR_Q4-11" value="розыгрыш" style="swimlane;fontStyle=1;align=center;verticalAlign=middle;childLayout=stackLayout;horizontal=1;startSize=30;horizontalStack=0;resizeParent=0;resizeLast=1;container=0;collapsible=0;rounded=1;arcSize=30;swimlaneFillColor=#ffffc0;dropTarget=0;labelBackgroundColor=none;" parent="1" vertex="1">
          <mxGeometry x="520" y="280" width="160" height="60" as="geometry" />
        </mxCell>
        <mxCell id="uEcfHRJKwu7Lw1StR_Q4-12" value="выбор &quot;мешочка&quot;" style="text;html=1;strokeColor=none;fillColor=none;align=center;verticalAlign=middle;spacingLeft=4;spacingRight=4;whiteSpace=wrap;overflow=hidden;rotatable=0;labelBackgroundColor=none;" parent="uEcfHRJKwu7Lw1StR_Q4-11" vertex="1">
          <mxGeometry y="30" width="160" height="30" as="geometry" />
        </mxCell>
        <mxCell id="uEcfHRJKwu7Lw1StR_Q4-13" value="выбор сделан" style="edgeStyle=orthogonalEdgeStyle;html=1;verticalAlign=bottom;endArrow=open;endSize=8;rounded=0;labelBackgroundColor=none;fontColor=default;entryX=0.54;entryY=-0.007;entryDx=0;entryDy=0;entryPerimeter=0;" parent="1" source="uEcfHRJKwu7Lw1StR_Q4-11" target="uEcfHRJKwu7Lw1StR_Q4-8" edge="1">
          <mxGeometry x="-0.0446" y="10" relative="1" as="geometry">
            <mxPoint x="605" y="380" as="targetPoint" />
            <Array as="points">
              <mxPoint x="613" y="360" />
              <mxPoint x="613" y="360" />
            </Array>
            <mxPoint as="offset" />
          </mxGeometry>
        </mxCell>
        <mxCell id="uEcfHRJKwu7Lw1StR_Q4-16" style="edgeStyle=orthogonalEdgeStyle;rounded=0;orthogonalLoop=1;jettySize=auto;html=1;entryX=0;entryY=0.25;entryDx=0;entryDy=0;curved=1;labelBackgroundColor=none;fontColor=default;exitX=0;exitY=0.5;exitDx=0;exitDy=0;" parent="1" source="uEcfHRJKwu7Lw1StR_Q4-27" target="uEcfHRJKwu7Lw1StR_Q4-5" edge="1">
          <mxGeometry relative="1" as="geometry">
            <Array as="points">
              <mxPoint x="530" y="690" />
              <mxPoint x="390" y="690" />
              <mxPoint x="390" y="168" />
            </Array>
            <mxPoint x="550" y="690" as="sourcePoint" />
          </mxGeometry>
        </mxCell>
        <mxCell id="uEcfHRJKwu7Lw1StR_Q4-29" value="нажата кнопка&lt;br&gt;Играть снова" style="edgeLabel;html=1;align=center;verticalAlign=middle;resizable=0;points=[];" parent="uEcfHRJKwu7Lw1StR_Q4-16" connectable="0" vertex="1">
          <mxGeometry x="0.0801" relative="1" as="geometry">
            <mxPoint as="offset" />
          </mxGeometry>
        </mxCell>
        <mxCell id="uEcfHRJKwu7Lw1StR_Q4-21" value="" style="ellipse;html=1;shape=endState;labelBackgroundColor=none;" parent="1" vertex="1">
          <mxGeometry x="595" y="730" width="30" height="30" as="geometry" />
        </mxCell>
        <mxCell id="uEcfHRJKwu7Lw1StR_Q4-23" value="нажата кнопка &lt;br&gt;Забрать монеты" style="text;align=center;fontStyle=1;verticalAlign=middle;spacingLeft=3;spacingRight=3;strokeColor=none;rotatable=0;points=[[0,0.5],[1,0.5]];portConstraint=eastwest;html=1;labelBackgroundColor=none;" parent="1" vertex="1">
          <mxGeometry x="565" y="644" width="85" height="66" as="geometry" />
        </mxCell>
        <mxCell id="uEcfHRJKwu7Lw1StR_Q4-26" value="результирующее" style="swimlane;fontStyle=1;align=center;verticalAlign=middle;childLayout=stackLayout;horizontal=1;startSize=30;horizontalStack=0;resizeParent=0;resizeLast=1;container=0;fontColor=#000000;collapsible=0;rounded=1;arcSize=30;strokeColor=#ff0000;fillColor=#ffffc0;swimlaneFillColor=#ffffc0;dropTarget=0;" parent="1" vertex="1">
          <mxGeometry x="530" y="550" width="160" height="80" as="geometry" />
        </mxCell>
        <mxCell id="uEcfHRJKwu7Lw1StR_Q4-27" value="вывод сообщения\монет&lt;br&gt;ожидание следующего действия&lt;br&gt;" style="text;html=1;strokeColor=none;fillColor=none;align=center;verticalAlign=middle;spacingLeft=4;spacingRight=4;whiteSpace=wrap;overflow=hidden;rotatable=0;fontColor=#000000;" parent="uEcfHRJKwu7Lw1StR_Q4-26" vertex="1">
          <mxGeometry y="30" width="160" height="50" as="geometry" />
        </mxCell>
        <mxCell id="uEcfHRJKwu7Lw1StR_Q4-28" value="" style="edgeStyle=orthogonalEdgeStyle;html=1;verticalAlign=bottom;endArrow=open;endSize=8;strokeColor=#ff0000;rounded=0;entryX=0.5;entryY=0;entryDx=0;entryDy=0;" parent="1" source="uEcfHRJKwu7Lw1StR_Q4-26" target="uEcfHRJKwu7Lw1StR_Q4-21" edge="1">
          <mxGeometry relative="1" as="geometry">
            <mxPoint x="610" y="670" as="targetPoint" />
          </mxGeometry>
        </mxCell>
      </root>
    </mxGraphModel>
  </diagram>
  <diagram id="hzB8VVGszMfoKy7h70cb" name="Д.Классов (Спецификация)">
    <mxGraphModel dx="957" dy="686" grid="1" gridSize="10" guides="1" tooltips="1" connect="1" arrows="1" fold="1" page="1" pageScale="1" pageWidth="827" pageHeight="1169" math="0" shadow="0">
      <root>
        <mxCell id="7CJyA0cYNAnLvhlfi3I6-0" />
        <mxCell id="7CJyA0cYNAnLvhlfi3I6-1" parent="7CJyA0cYNAnLvhlfi3I6-0" />
        <mxCell id="7CJyA0cYNAnLvhlfi3I6-2" value="&lt;p style=&quot;margin: 0px ; margin-top: 4px ; text-align: center&quot;&gt;&lt;b&gt;Спецификация&lt;/b&gt;&lt;/p&gt;&lt;hr size=&quot;1&quot;&gt;&lt;p style=&quot;margin: 0px ; margin-left: 4px&quot;&gt;+ DateTime Дата выдачи&lt;/p&gt;&lt;p style=&quot;margin: 0px ; margin-left: 4px&quot;&gt;+ String Статус&lt;/p&gt;&lt;p style=&quot;margin: 0px ; margin-left: 4px&quot;&gt;+ String Область применения&lt;/p&gt;&lt;p style=&quot;margin: 0px ; margin-left: 4px&quot;&gt;+ Object Сведения об организации&lt;/p&gt;&lt;p style=&quot;margin: 0px ; margin-left: 4px&quot;&gt;+ ArrayList&amp;lt;String&amp;gt; Ссылки&lt;/p&gt;&lt;p style=&quot;margin: 0px ; margin-left: 4px&quot;&gt;+ Object Сведение об органе&lt;/p&gt;&lt;p style=&quot;margin: 0px ; margin-left: 4px&quot;&gt;+ Object Основная часть&lt;/p&gt;&lt;p style=&quot;margin: 0px ; margin-left: 4px&quot;&gt;+ ArrayList&amp;lt;Object&amp;gt;Требования к достоверности&lt;/p&gt;&lt;p style=&quot;margin: 0px ; margin-left: 4px&quot;&gt;+ ArrayList&amp;lt;Object&amp;gt; Условия&lt;/p&gt;&lt;p style=&quot;margin: 0px ; margin-left: 4px&quot;&gt;+ ArrayList&amp;lt;Object&amp;gt; Ограничения&lt;/p&gt;&lt;p style=&quot;margin: 0px ; margin-left: 4px&quot;&gt;+ ArratList&amp;lt;Object&amp;gt; Характеристики&lt;/p&gt;&lt;p style=&quot;margin: 0px ; margin-left: 4px&quot;&gt;+ Object История внесения изменения&lt;/p&gt;&lt;hr size=&quot;1&quot;&gt;&lt;p style=&quot;margin: 0px ; margin-left: 4px&quot;&gt;+ Void Спецификация (Дата выдачи, Статус, Область&amp;nbsp;&lt;/p&gt;&lt;p style=&quot;margin: 0px ; margin-left: 4px&quot;&gt;применения, сведения об организации, сведение об органе,&lt;/p&gt;&lt;p style=&quot;margin: 0px ; margin-left: 4px&quot;&gt;)&lt;/p&gt;" style="verticalAlign=top;align=left;overflow=fill;fontSize=12;fontFamily=Helvetica;html=1;" parent="7CJyA0cYNAnLvhlfi3I6-1" vertex="1">
          <mxGeometry x="140" y="300" width="400" height="280" as="geometry" />
        </mxCell>
      </root>
    </mxGraphModel>
  </diagram>
</mxfile>
